<?xml version="1.0" encoding="utf-8"?>
<!-- Generator: Adobe Illustrator 21.1.0, SVG Export Plug-In . SVG Version: 6.00 Build 0)  -->
<svg version="1.1" id="Icons" xmlns="http://www.w3.org/2000/svg" xmlns:xlink="http://www.w3.org/1999/xlink" x="0px" y="0px"
	 width="62px" height="75.8px" viewBox="0 0 62 75.8" style="enable-background:new 0 0 62 75.8;" xml:space="preserve">
<style type="text/css">
	.st0{fill:#7DD6EA;}
	.st1{fill:#FFFFFF;}
</style>
<rect x="18.7" y="20.2" class="st0" width="29.6" height="7.9"/>
<g>
	<g>
		<path class="st1" d="M1.6,66.9c-0.9,0-1.6-0.7-1.6-1.6v-59C0,2.8,2.8,0,6.3,0h54.1C61.3,0,62,0.7,62,1.6v57.1
			c0,0.9-0.7,1.6-1.6,1.6c-0.9,0-1.6-0.7-1.6-1.6V3.1H6.3c-1.8,0-3.2,1.4-3.2,3.2v59C3.1,66.2,2.4,66.9,1.6,66.9z"/>
	</g>
	<g>
		<path class="st1" d="M60.4,75.8H9.4c-5.2,0-9.4-4.2-9.4-9.4s4.2-9.4,9.4-9.4h51.1c0.9,0,1.6,0.7,1.6,1.6c0,0.9-0.7,1.6-1.6,1.6
			H9.4c-3.4,0-6.2,2.8-6.2,6.2s2.8,6.2,6.2,6.2h51.1c0.9,0,1.6,0.7,1.6,1.6C62,75.1,61.3,75.8,60.4,75.8z"/>
	</g>
	<g>
		<path class="st1" d="M60.4,68.1H8.5c-0.9,0-1.6-0.7-1.6-1.6c0-0.9,0.7-1.6,1.6-1.6h51.9c0.9,0,1.6,0.7,1.6,1.6
			C62,67.4,61.3,68.1,60.4,68.1z"/>
	</g>
	<g>
		<path class="st1" d="M48.3,30.8H13.7c-0.9,0-1.6-0.7-1.6-1.6V15.4c0-0.9,0.7-1.6,1.6-1.6h34.6c0.9,0,1.6,0.7,1.6,1.6v13.8
			C49.9,30.1,49.2,30.8,48.3,30.8z M15.3,27.7h31.5V17H15.3V27.7z"/>
	</g>
</g>
</svg>
