<?xml version="1.0" encoding="utf-8"?>
<!-- Generator: Adobe Illustrator 21.1.0, SVG Export Plug-In . SVG Version: 6.00 Build 0)  -->
<svg version="1.1" xmlns="http://www.w3.org/2000/svg" xmlns:xlink="http://www.w3.org/1999/xlink" x="0px" y="0px" width="68px"
	 height="62.8px" viewBox="0 0 68 62.8" style="enable-background:new 0 0 68 62.8;" xml:space="preserve">
<style type="text/css">
	.st0{fill-rule:evenodd;clip-rule:evenodd;fill:#B2D460;}
	.st1{fill:#256782;}
</style>
<g id="Color">
	<polygon class="st0" points="46,30 14.4,17 27.6,48.4 	"/>
</g>
<g id="Line">
	<g>
		<path class="st1" d="M66.5,62.8h-6c-2,0-2-3,0-3H65v-4.5c0-2,3-2,3,0v6C68,62.1,67.3,62.8,66.5,62.8z M7.5,62.8h-6
			c-0.8,0-1.5-0.7-1.5-1.5v-6c0-2,3-2,3,0v4.5h4.5c0.8,0,1.5,0.7,1.5,1.5C9,62.1,8.3,62.8,7.5,62.8z M47.2,55.8L34.9,43.5
			c-6.4,6.4-6.3,6.6-7.3,6.4c-1.1-0.2,0.1,1.8-16.5-37.8c-0.5-1.2,0.7-2.5,1.9-2l37.1,15.3c1,0.4,1.2,1.7,0.5,2.4l-6.2,6.2l2.6,2.6
			c0.6,0.6,0.6,1.5,0,2.1c-0.6,0.6-1.5,0.6-2.1,0c-3.9-3.9-4.1-3.9-4.1-4.7c0-0.8,0-0.6,6.1-6.7l-31.7-13l13.2,31.5l5.4-5.4
			c0.6-0.6,1.6-0.6,2.1,0l12.3,12.3l5.2-5.2l-4.9-4.9c-0.6-0.6-0.6-1.5,0-2.1c0.6-0.6,1.5-0.6,2.1,0l5.9,5.9c0.6,0.6,0.6,1.5,0,2.1
			l-7.4,7.4C48.7,56.4,47.8,56.4,47.2,55.8z M66.5,9C65.7,9,65,8.3,65,7.5V3h-4.5C59.7,3,59,2.3,59,1.5S59.7,0,60.5,0h6
			C67.3,0,68,0.7,68,1.5v6C68,8.3,67.3,9,66.5,9z M0,7.5v-6C0,0.7,0.7,0,1.5,0h6c2,0,2,3,0,3H3v4.5C3,9.4,0,9.5,0,7.5z"/>
	</g>
</g>
</svg>
