<?xml version="1.0" encoding="utf-8"?>
<!-- Generator: Adobe Illustrator 21.1.0, SVG Export Plug-In . SVG Version: 6.00 Build 0)  -->
<svg version="1.1" id="Icons" xmlns="http://www.w3.org/2000/svg" xmlns:xlink="http://www.w3.org/1999/xlink" x="0px" y="0px"
	 width="70px" height="64.8px" viewBox="0 0 70 64.8" style="enable-background:new 0 0 70 64.8;" xml:space="preserve">
<style type="text/css">
	.st0{fill:#EF8975;}
	.st1{fill:#256782;}
</style>
<g>
	<g>
		<rect x="9.1" y="43.7" class="st0" width="59.5" height="7.6"/>
	</g>
	<g>
		<g>
			<path class="st1" d="M24.8,64.8c-0.3,0-0.5-0.1-0.8-0.2c-0.7-0.4-0.8-1.3-0.4-2c0.9-1.4,1.5-3.1,1.5-4.8v-6.2
				c0-0.8,0.6-1.4,1.4-1.4s1.4,0.6,1.4,1.4v6.2c0,2.3-0.7,4.5-1.9,6.4C25.7,64.6,25.3,64.8,24.8,64.8z"/>
		</g>
		<g>
			<path class="st1" d="M45.1,64.8c-0.5,0-0.9-0.2-1.2-0.6c-1.3-1.9-1.9-4.1-1.9-6.4v-6.2c0-0.8,0.6-1.4,1.4-1.4
				c0.8,0,1.4,0.6,1.4,1.4v6.2c0,1.7,0.5,3.4,1.5,4.8c0.4,0.7,0.3,1.5-0.4,2C45.6,64.7,45.4,64.8,45.1,64.8z"/>
		</g>
		<g>
			<path class="st1" d="M67.2,52.7H2.6c-1.4,0-2.6-1.2-2.6-2.6V7c0-3.9,3.1-7,7-7h56c3.9,0,7,3.1,7,7v42.9
				C70,51.5,68.8,52.7,67.2,52.7z M2.9,49.8h64.3V7c0-2.3-1.9-4.1-4.1-4.1H7C4.7,2.9,2.9,4.7,2.9,7V49.8z"/>
		</g>
		<g>
			<path class="st1" d="M56.5,15.1H12.1c-0.8,0-1.4-0.6-1.4-1.4c0-0.8,0.6-1.4,1.4-1.4h44.4c0.8,0,1.4,0.6,1.4,1.4
				C57.9,14.5,57.2,15.1,56.5,15.1z"/>
		</g>
		<g>
			<path class="st1" d="M45.6,22.7h-8c-0.8,0-1.4-0.6-1.4-1.4s0.6-1.4,1.4-1.4h8c0.8,0,1.4,0.6,1.4,1.4S46.4,22.7,45.6,22.7z"/>
		</g>
		<g>
			<path class="st1" d="M26.2,22.7H12.1c-0.8,0-1.4-0.6-1.4-1.4s0.6-1.4,1.4-1.4h14.2c0.8,0,1.4,0.6,1.4,1.4S27,22.7,26.2,22.7z"/>
		</g>
		<g>
			<path class="st1" d="M59.2,45.1H1.4c-0.8,0-1.4-0.6-1.4-1.4s0.6-1.4,1.4-1.4h57.8c0.8,0,1.4,0.6,1.4,1.4S60,45.1,59.2,45.1z"/>
		</g>
		<g>
			<path class="st1" d="M52,64.8H18c-0.8,0-1.4-0.6-1.4-1.4c0-0.8,0.6-1.4,1.4-1.4h34c0.8,0,1.4,0.6,1.4,1.4
				C53.4,64.2,52.8,64.8,52,64.8z"/>
		</g>
	</g>
</g>
</svg>
