<?xml version="1.0" encoding="utf-8"?>
<!-- Generator: Adobe Illustrator 21.1.0, SVG Export Plug-In . SVG Version: 6.00 Build 0)  -->
<svg version="1.1" id="Icons" xmlns="http://www.w3.org/2000/svg" xmlns:xlink="http://www.w3.org/1999/xlink" x="0px" y="0px"
	 width="53px" height="65.6px" viewBox="0 0 53 65.6" style="enable-background:new 0 0 53 65.6;" xml:space="preserve">
<style type="text/css">
	.st0{fill:#7DD6EA;}
	.st1{fill:#256782;}
</style>
<g>
	<g>
		<rect x="13.4" y="14.5" class="st0" width="8.9" height="8.8"/>
	</g>
	<g>
		<g>
			<path class="st1" d="M48.7,65.6H4.3c-2.4,0-4.3-1.9-4.3-4.3V4.3C0,1.9,1.9,0,4.3,0h31.6C37,0,38,0.4,38.7,1.2l13.1,13.1
				C52.6,15,53,16,53,17.1v44.1C53,63.6,51.1,65.6,48.7,65.6z M4.3,2.7c-0.9,0-1.6,0.7-1.6,1.6v56.9c0,0.9,0.7,1.6,1.6,1.6h44.4
				c0.9,0,1.6-0.7,1.6-1.6V17.1c0-0.3-0.1-0.7-0.4-0.9L36.8,3.1c-0.2-0.2-0.6-0.4-0.9-0.4H4.3z"/>
		</g>
		<g>
			<path class="st1" d="M50.6,17.4h-8.3c-3.4,0-6.6-3.1-6.6-6.4V2.7c0-0.7,0.4-1.4,1.2-1.6c0.8-0.3,1.6-0.2,2.1,0.4L51.6,14
				c0.6,0.6,0.8,1.6,0.5,2.3C51.8,17,51.2,17.4,50.6,17.4z M49.6,15.9C49.6,15.9,49.6,15.9,49.6,15.9L49.6,15.9z M38.3,4.6V11
				c0,1.8,2,3.6,3.9,3.6h6.2L38.3,4.6z"/>
		</g>
		<g>
			<path class="st1" d="M33.8,34.3H9.7c-0.7,0-1.4-0.6-1.4-1.4s0.6-1.4,1.4-1.4h24.1c0.7,0,1.4,0.6,1.4,1.4S34.6,34.3,33.8,34.3z"/>
		</g>
		<g>
			<path class="st1" d="M43.3,44.7H9.7c-0.7,0-1.4-0.6-1.4-1.4S9,42,9.7,42h33.5c0.7,0,1.4,0.6,1.4,1.4S44,44.7,43.3,44.7z"/>
		</g>
		<g>
			<path class="st1" d="M43.3,55.2H9.7c-0.7,0-1.4-0.6-1.4-1.4c0-0.7,0.6-1.4,1.4-1.4h33.5c0.7,0,1.4,0.6,1.4,1.4
				C44.6,54.6,44,55.2,43.3,55.2z"/>
		</g>
		<g>
			<path class="st1" d="M22.3,24.7H9.7c-0.7,0-1.4-0.6-1.4-1.4V10.7C8.4,10,9,9.4,9.7,9.4h12.6c0.7,0,1.4,0.6,1.4,1.4v12.6
				C23.7,24.1,23.1,24.7,22.3,24.7z M11.1,22H21v-9.9h-9.9V22z"/>
		</g>
	</g>
</g>
</svg>
