<?xml version="1.0" encoding="utf-8"?>
<!-- Generator: Adobe Illustrator 21.1.0, SVG Export Plug-In . SVG Version: 6.00 Build 0)  -->
<svg version="1.1" id="Icons" xmlns="http://www.w3.org/2000/svg" xmlns:xlink="http://www.w3.org/1999/xlink" x="0px" y="0px"
	 width="56px" height="73.7px" viewBox="0 0 56 73.7" style="enable-background:new 0 0 56 73.7;" xml:space="preserve">
<style type="text/css">
	.st0{fill:#B1D35F;}
	.st1{fill:#256782;}
</style>
<g>
	<path class="st0" d="M37.4,7.3c-8.8,0-15.9,7.1-15.9,15.9c0,1.9,0.4,3.8,1,5.5c1.4,4.1,14.7,26.2,14.7,26.2l0.2,0.4
		c0,0,12.4-19.9,14.9-26.6c0.6-1.7,1-3.6,1-5.5C53.3,14.4,46.2,7.3,37.4,7.3z M37.4,30.6c-4,0-7.2-3.2-7.2-7.2c0-4,3.2-7.2,7.2-7.2
		c4,0,7.2,3.2,7.2,7.2C44.6,27.4,41.4,30.6,37.4,30.6z"/>
	<g>
		<g>
			<path class="st1" d="M50.8,73.7H5.2c-2.8,0-5.2-2.3-5.2-5.2V45.8c0-2.8,2.3-5.2,5.2-5.2h14.8c0.9,0,1.6,0.7,1.6,1.6
				c0,0.9-0.7,1.6-1.6,1.6H5.2c-1.1,0-2,0.9-2,2v22.8c0,1.1,0.9,2,2,2h45.7c1.1,0,2-0.9,2-2V45.8c0-1.1-0.9-2-2-2h-5.1
				c-0.9,0-1.6-0.7-1.6-1.6c0-0.9,0.7-1.6,1.6-1.6h5.1c2.8,0,5.2,2.3,5.2,5.2v22.8C56,71.4,53.7,73.7,50.8,73.7z"/>
		</g>
		<g>
			<path class="st1" d="M35.7,58.7C35.7,58.7,35.7,58.7,35.7,58.7c-0.6,0-1.1-0.3-1.4-0.8l-0.2-0.4c-0.6-1-15.5-25.7-17.2-30.6
				c-0.8-2.3-1.2-4.6-1.2-6.9c0-11,9-20,20-20c11,0,20,9,20,20c0,2.4-0.4,4.7-1.2,6.9C51.6,34.7,37.7,57,37.1,58
				C36.8,58.5,36.3,58.7,35.7,58.7z M35.7,3.1c-9.3,0-16.9,7.6-16.9,16.9c0,1.9,0.4,3.9,1,5.9c1.2,3.4,10.3,19.1,15.9,28.3
				c3.6-5.9,13.5-22.2,15.8-28.3c0.7-1.8,1-3.8,1-5.8C52.6,10.7,45,3.1,35.7,3.1z M35.7,30.1c-5.4,0-9.9-4.4-9.9-9.9
				c0-5.4,4.4-9.9,9.9-9.9s9.9,4.4,9.9,9.9C45.6,25.7,41.2,30.1,35.7,30.1z M35.7,13.5c-3.7,0-6.7,3-6.7,6.7c0,3.7,3,6.7,6.7,6.7
				c3.7,0,6.7-3,6.7-6.7C42.5,16.5,39.5,13.5,35.7,13.5z"/>
		</g>
	</g>
</g>
</svg>
