<?xml version="1.0" encoding="utf-8"?>
<!-- Generator: Adobe Illustrator 21.1.0, SVG Export Plug-In . SVG Version: 6.00 Build 0)  -->
<svg version="1.1" id="Icons" xmlns="http://www.w3.org/2000/svg" xmlns:xlink="http://www.w3.org/1999/xlink" x="0px" y="0px"
	 width="65px" height="66.1px" viewBox="0 0 65 66.1" style="enable-background:new 0 0 65 66.1;" xml:space="preserve">
<style type="text/css">
	.st0{fill:#F4C221;}
	.st1{fill:#256782;}
</style>
<g>
	<rect x="31" y="33" class="st0" width="11.3" height="31.6"/>
	<g>
		<g>
			<path class="st1" d="M14.3,51.4c-0.4,0-0.9-0.2-1.2-0.6l-6.4-8.3C6.2,41.9,6.3,41,7,40.5C7.6,40,8.5,40.1,9,40.7l6.4,8.3
				c0.5,0.6,0.4,1.6-0.3,2.1C14.9,51.3,14.6,51.4,14.3,51.4z"/>
		</g>
		<g>
			<path class="st1" d="M57.1,66.1c-0.8,0-1.5-0.7-1.5-1.5V46l-3.7,4.9c-0.5,0.6-1.4,0.8-2.1,0.3c-0.6-0.5-0.8-1.4-0.3-2.1l6.4-8.3
				c0.4-0.5,1-0.7,1.6-0.5c0.6,0.2,1,0.8,1,1.4v22.9C58.6,65.4,58,66.1,57.1,66.1z"/>
		</g>
		<g>
			<path class="st1" d="M63.5,51.4c-0.4,0-0.9-0.2-1.2-0.6L56,42.5c-0.5-0.6-0.4-1.6,0.3-2.1c0.6-0.5,1.6-0.4,2.1,0.3l6.4,8.3
				c0.5,0.6,0.4,1.6-0.3,2.1C64.2,51.3,63.8,51.4,63.5,51.4z"/>
		</g>
		<g>
			<g>
				<path class="st1" d="M34.5,66.1H22.7c-0.8,0-1.5-0.7-1.5-1.5V33.2h-12c-0.6,0-1.1-0.3-1.3-0.8c-0.2-0.5-0.2-1.1,0.2-1.6
					L31.3,0.6c0.5-0.6,1.4-0.8,2.1-0.3c0.6,0.5,0.8,1.4,0.3,2.1L12.2,30.2h10.5c0.8,0,1.5,0.7,1.5,1.5v31.4h10.4
					c0.8,0,1.5,0.7,1.5,1.5C36,65.4,35.3,66.1,34.5,66.1z"/>
			</g>
			<g>
				<path class="st1" d="M42.3,66.1c-0.8,0-1.5-0.7-1.5-1.5V31.7c0-0.8,0.7-1.5,1.5-1.5h10.5L31.3,2.4c-0.5-0.6-0.4-1.6,0.3-2.1
					c0.6-0.5,1.6-0.4,2.1,0.3l23.3,30.2c0.3,0.4,0.4,1,0.2,1.6c-0.2,0.5-0.8,0.8-1.3,0.8h-12v31.4C43.8,65.4,43.1,66.1,42.3,66.1z"
					/>
			</g>
		</g>
		<g>
			<path class="st1" d="M22.7,66.1H7.9c-0.8,0-1.5-0.7-1.5-1.5V46l-3.7,4.9c-0.5,0.6-1.4,0.8-2.1,0.3c-0.6-0.5-0.8-1.4-0.3-2.1
				l6.4-8.3c0.4-0.5,1-0.7,1.6-0.5c0.6,0.2,1,0.8,1,1.4v21.5h13.3c0.8,0,1.5,0.7,1.5,1.5C24.2,65.4,23.5,66.1,22.7,66.1z"/>
		</g>
	</g>
</g>
</svg>
