<?xml version="1.0" encoding="utf-8"?>
<!-- Generator: Adobe Illustrator 21.1.0, SVG Export Plug-In . SVG Version: 6.00 Build 0)  -->
<svg version="1.1" id="Icons" xmlns="http://www.w3.org/2000/svg" xmlns:xlink="http://www.w3.org/1999/xlink" x="0px" y="0px"
	 width="67px" height="62.8px" viewBox="0 0 67 62.8" style="enable-background:new 0 0 67 62.8;" xml:space="preserve">
<style type="text/css">
	.st0{fill:#EE8875;}
	.st1{fill:#256782;}
</style>
<circle class="st0" cx="35.6" cy="33.2" r="7.3"/>
<g>
	<path class="st1" d="M33.5,52C19.4,52,6.6,44.3,0.2,32c-0.2-0.4-0.2-0.9,0-1.3c6.4-12.3,19.2-20,33.3-20c14.1,0,26.9,7.6,33.3,20
		c0.2,0.4,0.2,0.9,0,1.3C60.4,44.3,47.6,52,33.5,52z M2.9,31.4c6.1,11,17.7,17.8,30.6,17.8c12.8,0,24.5-6.8,30.6-17.8
		c-6.1-11-17.7-17.8-30.6-17.8C20.7,13.5,9,20.4,2.9,31.4z"/>
</g>
<g>
	<path class="st1" d="M33.5,41.9c-5.8,0-10.5-4.7-10.5-10.6c0-5.8,4.7-10.6,10.5-10.6c5.8,0,10.5,4.7,10.5,10.6
		C44,37.2,39.3,41.9,33.5,41.9z M33.5,23.6c-4.3,0-7.7,3.5-7.7,7.8c0,4.3,3.5,7.8,7.7,7.8c4.3,0,7.7-3.5,7.7-7.8
		C41.2,27.1,37.8,23.6,33.5,23.6z"/>
</g>
<g>
	<g>
		<path class="st1" d="M1.4,8.3C0.7,8.3,0,7.7,0,6.9V1.4C0,0.6,0.7,0,1.4,0H7c0.8,0,1.4,0.6,1.4,1.4c0,0.8-0.6,1.4-1.4,1.4H2.8v4.2
			C2.8,7.7,2.2,8.3,1.4,8.3z"/>
	</g>
	<g>
		<path class="st1" d="M7,62.8H1.4c-0.8,0-1.4-0.6-1.4-1.4v-5.6c0-0.8,0.6-1.4,1.4-1.4c0.8,0,1.4,0.6,1.4,1.4V60H7
			c0.8,0,1.4,0.6,1.4,1.4C8.4,62.1,7.8,62.8,7,62.8z"/>
	</g>
</g>
<g>
	<g>
		<path class="st1" d="M65.6,62.8H60c-0.8,0-1.4-0.6-1.4-1.4c0-0.8,0.6-1.4,1.4-1.4h4.2v-4.2c0-0.8,0.6-1.4,1.4-1.4
			c0.8,0,1.4,0.6,1.4,1.4v5.6C67,62.1,66.3,62.8,65.6,62.8z"/>
	</g>
	<g>
		<path class="st1" d="M65.6,8.3c-0.8,0-1.4-0.6-1.4-1.4V2.8H60c-0.8,0-1.4-0.6-1.4-1.4C58.6,0.6,59.2,0,60,0h5.6
			C66.3,0,67,0.6,67,1.4v5.6C67,7.7,66.3,8.3,65.6,8.3z"/>
	</g>
</g>
</svg>
