<?xml version="1.0" encoding="utf-8"?>
<!-- Generator: Adobe Illustrator 21.1.0, SVG Export Plug-In . SVG Version: 6.00 Build 0)  -->
<svg version="1.1" id="Icons" xmlns="http://www.w3.org/2000/svg" xmlns:xlink="http://www.w3.org/1999/xlink" x="0px" y="0px"
	 width="66px" height="74.8px" viewBox="0 0 66 74.8" style="enable-background:new 0 0 66 74.8;" xml:space="preserve">
<style type="text/css">
	.st0{fill:#7CD5EA;}
	.st1{fill:#256782;}
</style>
<g>
	<path class="st0" d="M44.4,73.5l-29.3-4c-2.9-0.4-4.9-3.1-4.5-6l4-29.3c0.4-2.9,3.1-4.9,6-4.5l29.3,4c2.9,0.4,4.9,3.1,4.5,6
		l-4,29.3C49.9,71.9,47.3,73.9,44.4,73.5z"/>
	<g>
		<g>
			<path class="st1" d="M60.8,66c-0.8,0-1.5-0.6-1.5-1.5c0-0.8,0.6-1.5,1.5-1.5c1.3,0,2.3-1.1,2.3-2.3l-0.5-42
				c0-1.3-1.1-2.3-2.3-2.3l-41.9,0.7c-0.6,0-1.2,0.2-1.6,0.7c-0.4,0.4-0.7,1-0.7,1.6c0,0.8-0.6,1.5-1.5,1.5c0,0,0,0,0,0
				c-0.8,0-1.5-0.6-1.5-1.5c0-1.4,0.5-2.7,1.5-3.7c1-1,2.3-1.6,3.7-1.6l41.9-0.7c0,0,0,0,0.1,0c2.9,0,5.2,2.3,5.3,5.2l0.5,42
				C66,63.5,63.7,65.9,60.8,66C60.8,66,60.8,66,60.8,66z"/>
		</g>
		<g>
			<path class="st1" d="M46.9,74.8c-0.2,0-0.4,0-0.7,0l-41.7-5c-2.9-0.4-4.9-3-4.6-5.9l5.2-41.7c0.2-1.4,0.9-2.6,2-3.5
				c1.1-0.9,2.5-1.2,3.9-1.1l41.7,5c1.4,0.2,2.6,0.9,3.5,2c0.9,1.1,1.2,2.5,1.1,3.9l-5.2,41.7c0,0,0,0,0,0
				C51.8,72.8,49.5,74.8,46.9,74.8z M10.4,20.6c-0.5,0-1,0.2-1.4,0.5c-0.5,0.4-0.8,0.9-0.9,1.5L3,64.3c-0.2,1.3,0.7,2.4,2,2.6
				l41.7,5c1.3,0.2,2.4-0.7,2.6-2l5.2-41.7c0.1-0.6-0.1-1.2-0.5-1.7c-0.4-0.5-0.9-0.8-1.5-0.9l-41.7-5
				C10.6,20.6,10.5,20.6,10.4,20.6z M50.7,70L50.7,70L50.7,70z"/>
		</g>
		<g>
			<g>
				<g>
					<path class="st1" d="M34.8,57.5c-0.1,0-0.1,0-0.2,0L14.1,55c-0.8-0.1-1.4-0.8-1.3-1.6c0.1-0.8,0.8-1.4,1.6-1.3l20.5,2.5
						c0.8,0.1,1.4,0.8,1.3,1.6C36.1,56.9,35.5,57.5,34.8,57.5z"/>
				</g>
			</g>
			<g>
				<g>
					<path class="st1" d="M43.4,49.8c-0.1,0-0.1,0-0.2,0l-28.1-3.4c-0.8-0.1-1.4-0.8-1.3-1.6c0.1-0.8,0.8-1.4,1.6-1.3l28.1,3.4
						c0.8,0.1,1.4,0.8,1.3,1.6C44.8,49.2,44.1,49.8,43.4,49.8z"/>
				</g>
			</g>
			<g>
				<g>
					<path class="st1" d="M25.5,38.8c-0.1,0-0.1,0-0.2,0l-9.1-1.1c-0.8-0.1-1.4-0.8-1.3-1.6c0.1-0.8,0.8-1.4,1.6-1.3l9.1,1.1
						c0.8,0.1,1.4,0.8,1.3,1.6C26.8,38.3,26.2,38.8,25.5,38.8z"/>
				</g>
			</g>
		</g>
		<g>
			<path class="st1" d="M30.6,21.6c-0.8,0-1.5-0.7-1.5-1.5V10c0-5.7,4.1-10,9.6-10h0.6c5.5,0,8.7,3.7,8.7,10v3.9
				c0,0.8-0.7,1.5-1.5,1.5c-0.8,0-1.5-0.7-1.5-1.5V10c0-4.8-1.9-7.1-5.8-7.1h-0.6c-3.9,0-6.7,3-6.7,7.1v10.1
				C32,21,31.4,21.6,30.6,21.6z"/>
		</g>
		<g>
			<path class="st1" d="M35.8,36.7h-0.4c-3.6,0-6.3-2.7-6.3-6.4V16.6c0-0.8,0.7-1.5,1.5-1.5c0.8,0,1.5,0.7,1.5,1.5v13.8
				c0,1.7,1.1,3.4,3.4,3.4h0.4c2.6,0,3.1-1.9,3.1-3.4V11.3c0-0.8,0.7-1.5,1.5-1.5c0.8,0,1.5,0.7,1.5,1.5v19.1
				C41.8,34.2,39.5,36.7,35.8,36.7z"/>
		</g>
	</g>
</g>
</svg>
