<?xml version="1.0" encoding="utf-8"?>
<!-- Generator: Adobe Illustrator 21.1.0, SVG Export Plug-In . SVG Version: 6.00 Build 0)  -->
<svg version="1.1" id="Icons" xmlns="http://www.w3.org/2000/svg" xmlns:xlink="http://www.w3.org/1999/xlink" x="0px" y="0px"
	 width="65px" height="68.1px" viewBox="0 0 65 68.1" style="enable-background:new 0 0 65 68.1;" xml:space="preserve">
<style type="text/css">
	.st0{fill:#F4C222;}
	.st1{fill:#256782;}
</style>
<g>
	<path class="st0" d="M14.8,47.1c0,0,5.1-5.1,6.6-6.6c1.5-1.5,0.4-3.5,2-5.1c1.6-1.6,9.2-9.2,10.6-10.6c1.4-1.4,2.8-4.9,2.2-6.5
		c-0.6-1.6,2.4,2.4,2.4,2.4l1.3,3.6l7.9,7.6l-0.3,3.8c0,0-12.1,12.5-12.4,12.6c-0.3,0.1-3.1,1.4-3.1,1.4l-7.3,7.3L14.8,47.1z"/>
	<g>
		<g>
			<path class="st1" d="M19.4,29.7c-0.3,0-0.7-0.1-1-0.4L17.1,28c-3,0.4-8,0.4-12-3.5C1.9,21.4,0,15.9,0.8,12
				c0.1-0.3,0.2-0.5,0.4-0.7l1.9-1.9c0.5-0.5,1.4-0.5,1.9,0l4.1,4.1c2.3,2.3,2.8,1.7,4.2,0.4l2.2-2.2c0.6-0.6,0.2-1.7-1.3-3.2
				L10,4.4C9.4,3.9,9.4,3,10,2.5l1.9-1.9c0.2-0.2,0.4-0.3,0.7-0.4c4.3-0.9,8.8,1.7,11.6,4.4c4.1,3.9,5.1,8.9,3,14.1l2.9,2.9
				c0.5,0.5,0.5,1.4,0,1.9c-0.5,0.5-1.4,0.5-1.9,0l-3.6-3.6c-0.4-0.4-0.5-1-0.3-1.6c1.5-3.1,2.3-7.7-2-11.8
				c-2.7-2.6-6.1-4.1-8.8-3.7l-0.7,0.7L16,6.6c3.7,3.7,2.4,6,1.3,7.1l-2.2,2.2c-1.3,1.3-3.8,3.8-8-0.4L4,12.3l-0.6,0.6
				c-0.4,3,1.2,7.3,3.6,9.6c3.5,3.3,7.9,3.1,10.3,2.7c0.4-0.1,0.9,0.1,1.2,0.4l1.9,1.8c0.5,0.5,0.5,1.4,0,1.9
				C20.1,29.6,19.8,29.7,19.4,29.7z"/>
		</g>
		<g>
			<path class="st1" d="M51.2,65.3c-3.6,0-8-1.8-10.6-4.5c-3.9-4-4-9-3.5-12l-1.2-1.5c-0.5-0.6-0.4-1.4,0.2-1.9
				c0.6-0.5,1.5-0.4,1.9,0.2l1.6,2c0.3,0.3,0.4,0.7,0.3,1.1c-0.4,2.4-0.7,6.8,2.7,10.3c2.3,2.4,6.6,4,9.6,3.6l0.6-0.6l-3.2-3.2
				c-1.8-1.8-2.5-3.3-2.3-4.9c0.2-1.4,1.2-2.4,1.9-3.2l2.2-2.2c1.1-1.1,3.4-2.3,7.1,1.3l3.2,3.2l0.7-0.7c0.3-2.6-1.1-6.1-3.7-8.8
				c-4.2-4.3-8.7-3.5-11.8-2c-0.5,0.3-1.2,0.1-1.6-0.3l-1.5-1.6c-0.5-0.5-0.5-1.4,0-1.9c0.5-0.5,1.4-0.5,1.9,0l0.9,0.9
				c5.2-2.1,10.2-1.1,14.1,3c2.7,2.8,5.2,7.3,4.4,11.6c-0.1,0.3-0.2,0.5-0.4,0.7L62.5,56c-0.5,0.5-1.4,0.5-1.9,0l-4.1-4.1
				c-1.5-1.5-2.6-2-3.2-1.3l-2.2,2.2c-0.6,0.6-1.1,1.1-1.2,1.6c-0.1,0.6,0.5,1.5,1.5,2.6l4.1,4.1c0.5,0.5,0.5,1.4,0,1.9l-1.9,1.9
				c-0.2,0.2-0.4,0.3-0.7,0.4C52.4,65.3,51.8,65.3,51.2,65.3z"/>
		</g>
		<g>
			<path class="st1" d="M29.1,53.8c-0.4,0-0.7-0.1-1-0.4c-0.5-0.5-0.5-1.4,0-1.9l3.6-3.6c0.2-0.2,0.4-0.3,0.6-0.4l1.9-0.5l11.5-11.5
				c0.7-0.7,0.8-1.5,0.8-2.1c0-0.8-0.3-1.3-0.4-1.4l-8-8c-0.2-0.2-0.3-0.4-0.4-0.7c-0.1-0.8-0.4-1.7-0.5-2c-0.4-0.6-1.4-1.5-2-2
				c-0.1,0-0.1-0.1-0.2-0.1c-0.4-0.4-0.9-0.4-1.3,0l-3,3c0,0.1,0,0.2,0,0.3c0.1,0.9-0.2,2.4-1.9,4.1l-3,3c-0.8,0.8-1.8,1.4-2.8,1.6
				c-1.3,0.3-2.6,0-3.5-0.9c-0.1,0-0.3-0.2-0.5-0.5c-0.2-0.2-0.5-0.4-0.7-0.6c-0.6,0.7-1.2,1.4-1.4,1.9c-0.6,1.6-0.2,2.8,0.3,3.7
				c1.2,2.1,0.4,3.7-0.2,4.3L14,42.7c-0.5,0.5-1.4,0.5-1.9,0c-0.5-0.5-0.5-1.4,0-1.9l3.4-3.4c0-0.1,0.1-0.4-0.3-1
				c-0.4-0.7-1.7-3-0.5-6.1c0.6-1.4,2.5-3.4,2.9-3.8c0.5-0.5,1.4-0.5,1.9,0c0,0,0.1,0.1,0.1,0.1c0.2,0.2,1.1,1,1.5,1.4
				c0.3,0.3,0.5,0.5,0.6,0.6c0.1,0.1,0.3,0.3,0.8,0.1c0.5-0.1,1.1-0.5,1.5-0.9l3-3c1-1,1.1-1.7,1.1-2c-0.2-0.2-0.3-0.5-0.3-0.7
				c0-0.4,0.1-0.8,0.4-1.1l3.7-3.7c1.4-1.4,3.7-1.4,5.1-0.1c0.4,0.3,2,1.5,2.7,2.8c0.3,0.5,0.6,1.6,0.7,2.4l7.7,7.7
				c0.7,0.7,1.2,2,1.2,3.3c0,1.5-0.6,3-1.6,4L36,49.3c-0.2,0.2-0.4,0.3-0.6,0.4l-1.9,0.5l-3.3,3.3C29.9,53.7,29.5,53.8,29.1,53.8z
				 M28.5,23.1C28.5,23.1,28.5,23.1,28.5,23.1C28.5,23.1,28.5,23.1,28.5,23.1z M28.5,23.1C28.5,23.1,28.5,23.1,28.5,23.1
				C28.5,23.1,28.5,23.1,28.5,23.1z"/>
		</g>
		<g>
			<path class="st1" d="M38.7,26.1c-0.4,0-0.7-0.1-1-0.4c-0.5-0.5-0.5-1.4,0-1.9l0.4-0.4c0.5-0.5,1.4-0.5,1.9,0
				c0.5,0.5,0.5,1.4,0,1.9l-0.4,0.4C39.4,25.9,39,26.1,38.7,26.1z"/>
		</g>
		<g>
			<path class="st1" d="M43.5,30.8c-0.4,0-0.7-0.1-1-0.4c-0.5-0.5-0.5-1.4,0-1.9l0.4-0.4c0.5-0.5,1.4-0.5,1.9,0
				c0.5,0.5,0.5,1.4,0,1.9l-0.4,0.4C44.2,30.7,43.8,30.8,43.5,30.8z"/>
		</g>
		<g>
			<path class="st1" d="M16.5,68.1c-0.4,0-0.7-0.1-1-0.4L0.4,52.6C0.1,52.3,0,52,0,51.6c0-0.4,0.1-0.7,0.4-1l9-9
				c0.3-0.3,0.6-0.4,1-0.4l0,0c0.4,0,0.7,0.1,1,0.4l15.2,15.2c0.5,0.5,0.5,1.4,0,1.9l-9,9C17.2,68,16.9,68.1,16.5,68.1z M3.3,51.6
				l13.2,13.2l7-7L10.3,44.6L3.3,51.6z"/>
		</g>
	</g>
</g>
</svg>
