<?xml version="1.0" encoding="utf-8"?>
<!-- Generator: Adobe Illustrator 21.1.0, SVG Export Plug-In . SVG Version: 6.00 Build 0)  -->
<svg version="1.1" id="Icons" xmlns="http://www.w3.org/2000/svg" xmlns:xlink="http://www.w3.org/1999/xlink" x="0px" y="0px"
	 width="146px" height="149px" viewBox="0 0 146 149" style="enable-background:new 0 0 146 149;" xml:space="preserve">
<style type="text/css">
	.st0{fill:#7BD4EA;}
	.st1{fill:#256782;}
</style>
<g>
	<circle class="st0" cx="108" cy="75.4" r="26.9"/>
	<g>
		<g>
			<path class="st1" d="M72.8,149c-26.1,0-50.6-14-63.7-38c-16.5-30.2-10-67.2,16-89.9c25.9-22.7,63.4-24.3,91.2-3.9
				c1,0.8,1.5,2,1.3,3.3c-0.2,1.3-1.2,2.3-2.4,2.6l-16.4,4.4c-1.8,0.5-3.6-0.6-4.1-2.4c-0.5-1.8,0.6-3.6,2.4-4.1l9.3-2.5
				C81.8,4.4,51.1,7.2,29.4,26.2C5.9,46.8-0.1,80.3,14.9,107.8c15,27.5,46.5,40.6,76.6,31.9c30.1-8.7,49.7-36.6,47.7-67.8
				c-0.1-1.8,1.3-3.4,3.1-3.5c1.9-0.1,3.4,1.3,3.5,3.1c2.2,34.4-19.4,65.1-52.5,74.7C86.5,148.1,79.6,149,72.8,149z"/>
		</g>
		<g>
			<path class="st1" d="M114.2,23.2c-1.5,0-2.8-1-3.2-2.5l-4.5-16.6c-0.5-1.8,0.6-3.6,2.4-4.1c1.8-0.5,3.6,0.6,4.1,2.4l4.5,16.6
				c0.5,1.8-0.6,3.6-2.4,4.1C114.8,23.2,114.5,23.2,114.2,23.2z"/>
		</g>
		<g>
			<path class="st1" d="M32.6,77.8v-5.6h5.2c3.7,0,7.6-1,7.6-4.3c0-2.1-1.7-4.8-7.5-4.8c-3.2,0-7.6,1.1-7.6,4.5h-6.8
				c0-7.8,7.8-10.7,14.4-10.7c6.8,0,14.2,3.3,14.2,11c0,2.8-1.9,6.2-5,7.1c3.5,1.1,5.9,4.6,5.9,7.6c0,8.9-8.3,11.5-15.3,11.5
				c-6.9,0-14.8-2.9-14.8-11.1h6.9c0,3.7,5,5,8,5c3.5,0,8.1-1.4,8.1-5.3c0-2.2-1.2-4.9-7.7-4.9H32.6z"/>
			<path class="st1" d="M64.6,68.4v5.4c1.6-2.5,5.5-3.8,8.4-3.8c7.3,0,15,3.1,15,12.1c0,8-7.7,12-15,12c-7.4,0-15.1-4-15.1-12.1
				V68.5c0-8.1,7.5-11.9,14.9-11.9c7.9,0,14.9,3.1,14.9,10.7h-6.8c0-3.2-4-4.8-7.9-4.8c-4.1-0.1-8.2,2.2-8.2,6.1V68.4z M81.1,82.1
				c0-4-3.6-6.1-8.2-6.1c-4.6,0-8.4,2.1-8.4,6.1c0.1,4,3.9,5.9,8.3,5.9C77.2,88,81.1,86.1,81.1,82.1z"/>
			<path class="st1" d="M92.1,72.8c0-21.6,31.8-21.6,31.8,0V78c0,21.6-31.8,21.6-31.8,0V72.8z M98.9,78c0,13.2,18.2,13.2,18.2,0
				v-5.2c0-12.9-18.2-13.1-18.2,0V78z"/>
		</g>
		<circle class="st1" cx="126.5" cy="49" r="4.9"/>
	</g>
</g>
</svg>
